<svg xmlns="http://www.w3.org/2000/svg" viewBox="0 0 183 58"><g fill="#fff" fill-rule="evenodd"><path d="M69 24.03c-.333.528-.9 1.14-1.7 1.832s-1.733 1.37-2.8 2.03-2.25 1.287-3.55 1.88-2.617 1.09-3.95 1.485c-.267 2.772-.867 5.677-1.8 8.713s-2.067 5.825-3.4 8.366-2.8 4.62-4.4 6.238S44.2 57 42.6 57c-.667 0-1.55-.198-2.65-.594s-2.167-1.023-3.2-1.88-1.917-1.898-2.65-3.12S33 48.716 33 47s.2-3.663.6-5.842.95-4.373 1.65-6.584a47.06 47.06 0 0 1 2.6-6.485c1.033-2.112 2.15-3.993 3.35-5.644s2.483-2.97 3.85-3.96S47.833 17 49.3 17c.733 0 1.45.248 2.15.743s1.383 1.122 2.05 1.88a20.03 20.03 0 0 1 1.85 2.475l1.55 2.426.3 2.277a27.58 27.58 0 0 0 5.15-.891L69 24.03zm-19.5 8.317c-1-.198-1.5-1.188-1.5-2.97 0-.726.083-1.55.25-2.475l.55-2.87c-.933 1.122-1.883 2.756-2.85 4.9s-1.833 4.44-2.6 6.88l-1.9 7.13c-.5 2.3-.75 4.158-.75 5.545 0 1.584.333 2.376 1 2.376s1.45-.545 2.35-1.634 1.783-2.525 2.65-4.307 1.7-3.78 2.5-6 1.433-4.44 1.9-6.683c-.333.066-.65.1-.95.1h-.65z"/><path d="M40 30.706c.067.736-.252 1.94-.956 3.612s-1.694 3.512-2.97 5.52-2.767 4.08-4.478 6.22-3.522 4.097-5.434 5.87-3.824 3.228-5.736 4.365S16.712 58 15.035 58c-1.4 0-2.885-.284-4.428-.853s-3.002-1.405-4.377-2.5-2.583-2.442-3.623-4.014-1.76-3.362-2.164-5.37c-.537-2.408-.587-5.185-.15-8.33s1.258-6.405 2.465-9.784 2.717-6.7 4.528-9.934 3.8-6.138 5.937-8.68 4.4-4.6 6.792-6.17S24.763 0 27.1 0c1.006 0 2.197.284 3.572.853a18.91 18.91 0 0 1 3.975 2.258c1.275.937 2.365 2 3.27 3.16s1.358 2.358 1.358 3.562c0 1.606-.553 3.53-1.66 5.77S35.175 20 33.6 22.075s-3.203 3.83-4.88 5.268-3.086 2.157-4.226 2.157c.67-.937 1.392-2.157 2.164-3.663a74.12 74.12 0 0 0 2.264-4.867 76.91 76.91 0 0 0 2.013-5.268c.603-1.773 1.04-3.362 1.308-4.766s.32-2.56.15-3.462-.654-1.355-1.46-1.355c-2.348 0-4.78 1.137-7.296 3.412s-4.864 5.134-7.044 8.58-4.06 7.175-5.635 11.2-2.6 7.743-3.07 11.2-.252 6.305.654 8.58 2.734 3.412 5.484 3.412c1.476 0 3.354-.77 5.635-2.308s4.662-3.428 7.145-5.67 4.897-4.616 7.245-7.125 4.327-4.733 5.937-6.673zm41.753-13.45c.267 0 .7.13 1.302.392s1.252.605 1.954 1.03a14.21 14.21 0 0 1 1.954 1.422c.602.522 1.035 1.078 1.302 1.667-.534.915-1.22 2.27-2.054 4.07l-2.605 6.127-2.555 7.206a52.99 52.99 0 0 0-1.803 7.402c1.002-1.1 2.087-2.45 3.256-4.02l3.306-4.755 2.805-4.608c.835-1.47 1.42-2.663 1.753-3.578.534.065.735.703.6 1.912s-.5 2.68-1.102 4.412l-2.254 5.637-2.805 5.588c-.968 1.7-1.92 3.12-2.855 4.265s-1.703 1.716-2.304 1.716-1.336-.212-2.204-.637a16.44 16.44 0 0 1-2.505-1.52c-.8-.588-1.486-1.2-2.054-1.863s-.852-1.2-.852-1.667c0-1.046.15-2.288.45-3.725l1.152-4.608 1.653-5 1.853-5c-1.202 1.7-2.505 3.8-3.907 6.275l-4.007 7.55-3.306 7.108c-.935 2.2-1.536 3.84-1.803 4.95-.534 0-1.152-.26-1.853-.784s-1.37-1.144-2.004-1.863-1.17-1.47-1.603-2.255-.65-1.438-.65-1.96c0-1.7.2-3.693.6-5.98l1.553-7.108 2.104-7.304 2.204-6.422 1.954-4.56c.6-1.176 1.07-1.765 1.403-1.765.6 0 1.27.114 2.004.343a19.88 19.88 0 0 1 2.104.784c.668.294 1.252.62 1.753.98s.852.67 1.052.93c-.4.588-.918 1.536-1.553 2.843l-2.054 4.755-2.304 6.324-2.204 7.45 4.107-7.892 4.508-7.108 4.007-5.147c1.202-1.34 2.037-2 2.505-2z"/><path d="M86.405 13.32c-1.502-.13-2.66-.59-3.477-1.38s-1.094-1.347-.833-1.676l5.093-.345 9.5-.444 2.645-6.16C100.118 1.772 100.673 1 101 1c.522 0 1.143.115 1.86.345s1.42.526 2.106.887l1.86 1.084c.555.36.898.674 1.028.936-.327.33-.735.904-1.224 1.725s-1.028 1.89-1.616 3.203l9.5-.05c2.743.033 4.506.214 5.29.542.327.13.637.427.93.887a7.79 7.79 0 0 1 .735 1.478c.196.526.343 1.035.44 1.528s.114.838.05 1.035c-.653-.197-1.6-.378-2.84-.542s-2.694-.28-4.36-.345l-5.485-.197-6.024-.1-2.9 7.885-2.987 8.822-2.743 8.92-2.155 8.082a59.404 59.404 0 0 0 3.526-4.19l3.526-4.78 2.94-4.435c.85-1.38 1.437-2.497 1.763-3.35.653.13.865.838.637 2.12s-.75 2.875-1.567 4.78l-2.987 6.16-3.575 6.062-3.38 4.633C92.314 55.376 91.53 56 91.008 56c-.26 0-.718-.246-1.37-.74s-1.306-1.134-1.96-1.922a17.54 17.54 0 0 1-1.714-2.464c-.5-.854-.702-1.6-.637-2.267.26-2.366.735-5.043 1.42-8.033l2.4-9.167 2.94-9.315 3.036-8.575h-5.975a18.11 18.11 0 0 1-1.469-.049l-1.273-.148z"/><path d="M136 24.03c-.333.528-.9 1.14-1.7 1.832s-1.733 1.37-2.8 2.03-2.25 1.287-3.55 1.88-2.617 1.09-3.95 1.485c-.267 2.772-.867 5.677-1.8 8.713s-2.067 5.825-3.4 8.366-2.8 4.62-4.4 6.238S111.2 57 109.6 57c-.667 0-1.55-.198-2.65-.594s-2.167-1.023-3.2-1.88-1.917-1.898-2.65-3.12-1.1-2.7-1.1-4.406.2-3.663.6-5.842.95-4.373 1.65-6.584a47.06 47.06 0 0 1 2.6-6.485c1.033-2.112 2.15-3.993 3.35-5.644s2.483-2.97 3.85-3.96S114.833 17 116.3 17c.733 0 1.45.248 2.15.743s1.383 1.122 2.05 1.88a20.03 20.03 0 0 1 1.85 2.475l1.55 2.426.3 2.277a27.58 27.58 0 0 0 5.15-.891l6.65-1.88zm-19.5 8.317c-1-.198-1.5-1.188-1.5-2.97 0-.726.083-1.55.25-2.475l.55-2.87c-.933 1.122-1.883 2.756-2.85 4.9s-1.833 4.44-2.6 6.88l-1.9 7.13c-.5 2.3-.75 4.158-.75 5.545 0 1.584.333 2.376 1 2.376s1.45-.545 2.35-1.634 1.783-2.525 2.65-4.307 1.7-3.78 2.5-6 1.433-4.44 1.9-6.683c-.333.066-.65.1-.95.1h-.65z"/><path d="M160 21.2c-1.14 1.133-2.833 2.567-5.08 4.3s-4.778 3.133-7.595 4.2c-.738 1.333-1.51 2.517-2.314 3.55s-1.542 1.55-2.213 1.55c-.604-.267-1.056-.833-1.358-1.7s-.52-1.8-.654-2.8-.15-1.917-.05-2.75.25-1.35.453-1.55c.67 0 1.576-.1 2.716-.3.268-1.067.386-2.017.352-2.85s-.117-1.45-.25-1.85c-.536 0-1.123.2-1.76.6s-1.274.917-1.91 1.55-1.2 1.383-1.66 2.25-.77 1.767-.905 2.7c-.2 1.267.017 2.65.654 4.15s1.375 3 2.213 4.5l2.314 4.45c.704 1.467 1.023 2.767.956 3.9-.067.8-.386 1.817-.956 3.05s-1.34 2.433-2.314 3.6a13.95 13.95 0 0 1-3.521 3c-1.375.833-2.9 1.25-4.577 1.25-1.274 0-2.43-.65-3.47-1.95s-1.894-2.833-2.565-4.6-1.123-3.567-1.358-5.4-.184-3.25.15-4.25c.67 1.867 1.56 3.467 2.666 4.8s2.213 2.4 3.32 3.2 2.112 1.317 3.018 1.55 1.526.183 1.86-.15c.536-.6.503-1.633-.1-3.1l-2.314-5.15-2.666-6.3c-.838-2.233-1.224-4.383-1.157-6.45.067-2.2.52-4.117 1.358-5.75s1.794-3 2.867-4.1 2.163-1.933 3.27-2.5 1.995-.85 2.666-.85 1.576.283 2.716.85 2.263 1.25 3.37 2.05 2.045 1.617 2.817 2.45 1.157 1.517 1.157 2.05c0 .4-.168 1.1-.503 2.1l3.37-.85 3.068-.9 2.464-.85c.704-.267 1.2-.5 1.46-.7z"/><path d="M183 24.03c-.333.528-.9 1.14-1.7 1.832s-1.733 1.37-2.8 2.03-2.25 1.287-3.55 1.88-2.617 1.09-3.95 1.485c-.267 2.772-.867 5.677-1.8 8.713s-2.067 5.825-3.4 8.366-2.8 4.62-4.4 6.238S158.2 57 156.6 57c-.667 0-1.55-.198-2.65-.594s-2.167-1.023-3.2-1.88-1.917-1.898-2.65-3.12-1.1-2.7-1.1-4.406.2-3.663.6-5.842.95-4.373 1.65-6.584a47.06 47.06 0 0 1 2.6-6.485c1.033-2.112 2.15-3.993 3.35-5.644s2.483-2.97 3.85-3.96S161.833 17 163.3 17c.733 0 1.45.248 2.15.743s1.383 1.122 2.05 1.88a20.03 20.03 0 0 1 1.85 2.475l1.55 2.426.3 2.277a27.58 27.58 0 0 0 5.15-.891l6.65-1.88zm-19.5 8.317c-1-.198-1.5-1.188-1.5-2.97 0-.726.083-1.55.25-2.475l.55-2.87c-.933 1.122-1.883 2.756-2.85 4.9s-1.833 4.44-2.6 6.88l-1.9 7.13c-.5 2.3-.75 4.158-.75 5.545 0 1.584.333 2.376 1 2.376s1.45-.545 2.35-1.634 1.783-2.525 2.65-4.307 1.7-3.78 2.5-6 1.433-4.44 1.9-6.683c-.333.066-.65.1-.95.1h-.65z"/></g></svg>